<svg id="svg" xmlns="http://www.w3.org/2000/svg" xmlns:xlink="http://www.w3.org/1999/xlink" width="400" height="400" viewBox="0, 0, 400,400"><g id="svgg"><path id="path0" d="M199.175 40.177 L 199.175 67.570 197.010 67.785 C 195.820 67.903,192.619 68.211,189.897 68.469 C 114.956 75.574,61.568 146.647,74.679 221.856 C 84.734 279.533,133.979 324.715,191.753 329.270 C 193.454 329.404,195.820 329.613,197.010 329.735 L 199.175 329.956 199.175 357.349 L 199.175 384.742 203.711 384.742 L 208.247 384.742 208.247 357.349 L 208.247 329.956 210.412 329.735 C 211.603 329.613,213.969 329.404,215.670 329.270 C 282.119 324.031,334.845 266.291,334.845 198.763 C 334.845 131.221,282.132 73.496,215.670 68.256 C 213.969 68.122,211.603 67.913,210.412 67.791 L 208.247 67.570 208.247 40.177 L 208.247 12.784 203.711 12.784 L 199.175 12.784 199.175 40.177 M216.082 77.123 C 317.700 87.710,362.371 211.564,290.796 284.275 C 224.130 351.999,108.767 321.000,85.363 229.072 C 64.448 146.925,132.031 68.367,216.082 77.123 M159.598 152.809 C 145.773 155.806,130.242 174.811,123.557 196.911 C 123.332 197.654,123.731 197.862,127.444 198.934 C 132.209 200.310,131.799 200.529,133.566 195.670 C 142.615 170.797,159.451 155.979,170.984 162.736 C 177.470 166.535,185.247 176.775,198.975 199.588 C 223.198 239.843,232.007 248.046,247.490 244.764 C 261.667 241.759,277.078 223.054,283.866 200.615 C 284.091 199.871,283.692 199.664,279.978 198.591 C 275.214 197.215,275.624 196.997,273.856 201.856 C 267.050 220.565,255.300 234.387,244.585 236.290 C 235.362 237.928,227.550 229.635,208.455 197.938 C 184.062 157.447,175.346 149.396,159.598 152.809 " stroke="none" fill="#000000" fill-rule="evenodd"></path></g></svg>